<?xml version="1.0" encoding="UTF-8"?>
<svg id="Layer_1" data-name="Layer 1" xmlns="http://www.w3.org/2000/svg" viewBox="0 0 276.5 276.5">
  <path d="M146.16,59.08c-11.71,1.11-31.36,10.36-31.36,35.88v24.1h-25.36v28.42h25.36v70.16h30.5v-70.16h23.06l3.95-28.42h-27v-14.86c0-7.27.21-14.9,9.04-18.17,5.34-1.97,18.91-.9,18.91-.9v-23.84s-15.37-3.33-27.08-2.22Z"/>
  <path d="M138.25,276.5c-36.93,0-71.65-14.38-97.76-40.49C14.38,209.89,0,175.18,0,138.25S14.38,66.6,40.49,40.49C66.6,14.38,101.32,0,138.25,0s71.65,14.38,97.76,40.49c26.11,26.11,40.49,60.83,40.49,97.76s-14.38,71.65-40.49,97.76c-26.11,26.11-60.83,40.49-97.76,40.49ZM138.25,11.39c-69.95,0-126.86,56.91-126.86,126.86s56.91,126.86,126.86,126.86,126.86-56.91,126.86-126.86S208.2,11.39,138.25,11.39Z"/>
</svg>