<?xml version="1.0" encoding="UTF-8"?>
<svg id="Layer_1" data-name="Layer 1" xmlns="http://www.w3.org/2000/svg" viewBox="0 0 278.18 278.18">
  <circle cx="179.61" cy="98.32" r="9.53"/>
  <path d="M139.09,177.2c21.05,0,38.11-17.06,38.11-38.11s-17.06-38.11-38.11-38.11-38.11,17.06-38.11,38.11,17.06,38.11,38.11,38.11ZM139.09,114.32c13.68.02,24.76,11.1,24.77,24.77,0,13.68-11.09,24.77-24.77,24.77s-24.77-11.09-24.77-24.77,11.09-24.77,24.77-24.77Z"/>
  <path d="M100.98,215.31h76.23c21.05,0,38.11-17.06,38.11-38.11v-76.22c0-21.05-17.06-38.11-38.11-38.11h-76.23c-21.05,0-38.11,17.06-38.11,38.11v76.22c0,21.05,17.06,38.11,38.11,38.11ZM76.2,100.98c.02-13.68,11.1-24.76,24.77-24.77h76.23c13.68.02,24.76,11.1,24.77,24.77v76.22c-.02,13.68-11.1,24.76-24.77,24.77h-76.23c-13.68-.02-24.76-11.1-24.77-24.77v-76.22Z"/>
  <path d="M139.09,278.18c-37.15,0-72.08-14.47-98.35-40.74C14.47,211.17,0,176.24,0,139.09S14.47,67.01,40.74,40.74C67.01,14.47,101.94,0,139.09,0s72.08,14.47,98.35,40.74c26.27,26.27,40.74,61.2,40.74,98.35s-14.47,72.08-40.74,98.35c-26.27,26.27-61.2,40.74-98.35,40.74ZM139.09,11.39c-70.41,0-127.7,57.29-127.7,127.7s57.29,127.7,127.7,127.7,127.7-57.29,127.7-127.7S209.5,11.39,139.09,11.39Z"/>
</svg>