<?xml version="1.0" encoding="UTF-8"?>
<svg id="Layer_1" data-name="Layer 1" xmlns="http://www.w3.org/2000/svg" viewBox="0 0 276.5 276.5">
  <path d="M138.25,276.5c-36.93,0-71.65-14.38-97.76-40.49C14.38,209.89,0,175.18,0,138.25S14.38,66.6,40.49,40.49,101.32,0,138.25,0s71.65,14.38,97.76,40.49c26.11,26.11,40.49,60.83,40.49,97.76s-14.38,71.65-40.49,97.76c-26.11,26.11-60.83,40.49-97.76,40.49ZM138.25,11.39c-69.95,0-126.86,56.91-126.86,126.86s56.91,126.86,126.86,126.86,126.86-56.91,126.86-126.86S208.2,11.39,138.25,11.39Z"/>
  <path d="M205.05,125.07v-26.87c-35.12-1.48-36.23-33.4-36.27-36.39v-.23h-27.12v104.64h0c0,11.88-9.63,21.5-21.51,21.5-11.88,0-21.5-9.63-21.5-21.51,0-11.88,9.63-21.5,21.51-21.5,2.12,0,4.23.32,6.27.93v-27.71c-26.67-3.46-51.09,15.34-54.56,42.01s15.34,51.09,42.01,54.56,51.09-15.34,54.56-42.01c.27-2.08.41-4.17.41-6.27,0-.68-.02-1.36-.05-2.03v-51.53c12.5,11.43,36.26,12.41,36.26,12.41Z"/>
</svg>