<?xml version="1.0" encoding="UTF-8"?>
<svg id="Layer_2" xmlns="http://www.w3.org/2000/svg" viewBox="0 0 110 55.75">
  <defs>
    <style>
      .cls-1 {
        fill: #181818;
      }

      .cls-2 {
        fill: #f10102;
      }

      .cls-3 {
        fill: #141414;
      }

      .cls-4 {
        fill: #f6f6f6;
      }

      .cls-5 {
        fill: #cdcdcd;
      }

      .cls-6 {
        fill: #f00202;
      }

      .cls-7 {
        fill: #e2e2e2;
      }

      .cls-8 {
        fill: #f9f9f9;
      }

      .cls-9 {
        fill: #251212;
      }

      .cls-10 {
        fill: #1f1f1f;
      }

      .cls-11 {
        fill: #c5c5c5;
      }

      .cls-12 {
        fill: #1d1d1d;
      }

      .cls-13 {
        fill: #fe0606;
      }

      .cls-14 {
        fill: #eee;
      }

      .cls-15 {
        fill: #191919;
      }

      .cls-16 {
        fill: #211213;
      }

      .cls-17 {
        fill: #f4f4f4;
      }

      .cls-18 {
        fill: #f60101;
      }

      .cls-19 {
        fill: #2c1112;
      }

      .cls-20 {
        fill: #fbfafa;
      }

      .cls-21 {
        fill: #fefefe;
      }

      .cls-22 {
        fill: #e7e7e7;
      }

      .cls-23 {
        fill: #fafafa;
      }

      .cls-24 {
        fill: #f7f7f7;
      }
    </style>
  </defs>
  <g id="Layer_1-2" data-name="Layer_1">
    <g>
      <path class="cls-3" d="M0,55.66V0h110v55.66H0ZM51.91,39.15h0c.06-.06.13-.13.19-.19.15-.16.31-.31.46-.47.05-.07.11-.14.16-.21.05-.07.1-.15.16-.22l.1-.25s.04-.05.05-.08c.11-.19.23-.38.34-.58.03-.01.05-.04.04-.07l.09-.2c0-.06,0-.12.01-.19.12-.35.23-.69.35-1.04.04-.11.09-.23.13-.34.14-.26.27-.53.41-.79.04-.06.08-.13.13-.19.09-.15.17-.31.26-.46.03-.02.04-.04.04-.07l.13-.3.08-.14c.04-.08.07-.16.11-.24.03-.04.06-.08.09-.12l.3-.72c.05-.15.1-.29.15-.44.46-1.29.92-2.58,1.39-3.87,0-.03,0-.06.01-.09.12-.32.23-.63.35-.95.04-.11.09-.23.13-.34l.09-.23c.03-.05.06-.1.09-.15.25-.34.21-1.41-.07-1.85,0-.05-.02-.09-.03-.14-.16-.26-.31-.51-.47-.77-.11-.15-.21-.3-.32-.45-.11-.13-.22-.27-.33-.4-.05-.05-.1-.11-.14-.16-.09-.09-.17-.18-.26-.26h-.01c-.09-.07-.18-.12-.27-.17-.06,0-.11,0-.17,0-.09.17-.18.34-.28.52.02.09.03.18.05.27.03.26.06.52.09.78-.07.16-.14.33-.21.49l-1.05,2.79s-.01.06-.02.09c-.03.06-.05.13-.08.19,0,.03-.01.06-.02.09-.11.32-.21.64-.32.95-.02.03-.04.05-.06.08-.1,0-.19.02-.29.02-.06-.04-.12-.08-.17-.12-.29-.26-.33-.57-.2-.93.24-.65.47-1.29.71-1.94.06-.17.12-.33.18-.5.01,0,.03.01.04.02-.37.62-.74,1.23-1.12,1.85-.04.06-.07.11-.11.17-.07.14-.14.27-.21.41l-.25.2c-.06-.03-.13-.06-.19-.09-.08-.05-.17-.09-.25-.14-.39-.16-.78-.32-1.17-.48-.05-.03-.1-.05-.15-.08-.14-.06-.28-.13-.41-.19-.11-.03-.22-.07-.33-.1-.08-.03-.15-.06-.23-.08-.05,0-.1,0-.15,0-.07-.03-.15-.05-.22-.08-.06,0-.12,0-.19,0-.11-.02-.22-.05-.47-.1.21.26.33.42.46.58.03.03.06.06.09.08.06.07.12.14.18.2l.85.73c.06.07.12.14.18.21.05.08.1.16.15.24.05.07.09.14.14.22.01.05.03.11.04.16l.15.2s.07.06.1.09c.13.11.26.22.39.33.01.03.03.05.06.05.1.1.19.19.29.29l1,.91c-.09.26-.19.52-.28.77-.03.04-.06.08-.09.12-.06.12-.13.23-.19.35-.01.03-.03.06-.04.09-.11.19-.22.38-.33.57-.03.04-.06.09-.09.13-.1.17-.2.35-.31.52-.02.02-.04.04-.04.07-.12.19-.24.38-.36.58-.07.12-.14.23-.22.35-.08.14-.16.27-.25.41-.02.02-.03.04-.04.06-.05.1-.1.21-.16.31l-.1.13c-.07.05-.14.1-.2.15-.06.01-.12.03-.17.04-.08.04-.15.09-.23.13-.05.01-.1.03-.15.04-.19.06-.38.13-.57.19-.22.03-.44.06-.66.09-1,.13-2.01.25-3.01.38-.06,0-.12.02-.18.02-.07.06-.15.12-.26.21.11,0,.18,0,.25,0,.09,0,.18-.02.27-.03.16.02.32.03.48.05.09,0,.19,0,.28-.01.1.02.19.05.29.07.06,0,.12,0,.19,0,.07.03.13.05.2.08.09,0,.18,0,.28.01.06.03.13.05.19.08.07.03.14.06.22.09.24.14.47.29.71.43.05.12.09.24.14.35.14.42.27.84.41,1.26,0,.04,0,.09,0,.13-.16.12-.32.25-.52.4.09.05.18.09.26.14.12.05.24.1.36.14.22.08.44.17.67.25l.38-.02c.06.02.12.04.18.06.25-.01.51-.03.76-.04.07-.01.14-.02.21-.03.14-.02.29-.04.43-.07.07-.05.14-.09.21-.14.03,0,.06,0,.08-.03.07-.05.14-.1.21-.15ZM62.9,12.96c.05-.07.09-.14.14-.2.02-.05.04-.1.06-.15.16-.51.32-1.03.47-1.54.01-.06.02-.12.03-.18.03-.28.07-.56.1-.84,0-.09,0-.19,0-.28,0-.09,0-.18,0-.27,0-.16-.02-.31-.03-.47-.02-.19-.05-.38-.07-.57-.02-.09-.03-.19-.05-.28-.05-.21-.1-.42-.15-.63-.01-.04-.03-.09-.04-.13-.11-.3-.23-.6-.34-.9-.04-.07-.07-.14-.11-.22-.06-.12-.12-.23-.18-.35-.02-.04-.05-.08-.07-.13-.05-.07-.1-.14-.14-.21,0-.03-.01-.06-.04-.07-.05-.07-.1-.15-.14-.22,0-.03,0-.05-.04-.06-.05-.07-.1-.14-.16-.21-.04-.05-.09-.11-.13-.16-.05-.07-.11-.13-.16-.2-.25-.25-.5-.5-.75-.75-.07-.06-.13-.11-.2-.17-.07-.06-.13-.13-.21-.19-3.22-2.5-8.08-1.93-10.57,1.3-1.9,2.46-2.27,5.2-.9,8.02,1.42,2.92,3.88,4.31,7.13,4.29.5,0,1-.1,1.5-.15,0-.05,0-.1,0-.15-.82-.25-1.7-.39-2.45-1.01.14-.01.19-.03.23-.02.97.18,1.94.38,2.92.53.85.13,1.55-.19,2.24-.9-3.45.72-6.32-.14-8.77-2.42.01-.04.03-.08.04-.13.4.19.8.38,1.19.57.04.01.08.03.11.04,0,.04.02.06.06.06.7.16,1.41.32,2.11.49l.18.02c.47,0,.93,0,1.4,0,.12-.02.25-.03.37-.05.13-.01.25-.03.38-.04.06-.01.12-.02.18-.04.18-.03.36-.06.54-.08.04-.01.09-.02.13-.03.06-.01.12-.03.18-.04.06-.02.12-.03.18-.05.16-.04.32-.08.48-.12.06-.02.12-.04.18-.06.35-.08.69-.16,1.04-.23.06-.02.12-.03.18-.05.1-.02.19-.03.29-.05.06-.02.12-.03.18-.05.13-.02.25-.04.38-.06.06-.01.12-.03.19-.04.29-.07.57-.13.86-.2h0ZM64.14,49.02c.08.05.17.11.25.16.21-.25.41-.51.63-.76.15-.18.29-.36.46-.51.18-.16.52-.24.34-.56-.43-.72.1-1.31.23-1.95.06-.31.18-.61.21-.92.03-.26-.05-.53-.05-.79,0-.55.27-.77.72-.69.24-.46.5-.9.7-1.35.25-.55.39-1.1.07-1.69-.22-.41-.39-.86-.48-1.31-.08-.43-.02-.88-.02-1.24-.27-.05-.51-.1-.79-.15-.04.13-.09.31-.16.51h.67c.12.77-.57.35-.77.61-.12-.24-.22-.44-.32-.65-.05,0-.1,0-.15.01-.08.57-.85.78-.7,1.49.02.08-.15.22-.24.31-.1.1-.21.19-.35.31.13.06.18.09.24.11.68.25.78.49.42,1.12-.21.38-.49.72-.72,1.09-.08.13-.21.3-.17.42.18.6-.27.7-.64.89-.16.08-.29.21-.42.34-.24.24-.41.57-.69.73-.56.32-1.16.56-1.76.82-.06.03-.21,0-.24-.06-.05-.07-.06-.21-.01-.29.18-.31.38-.61.57-.9-.56-.18-.99.13-.96.73.02.34.01.65-.31.88-.26.19-.5.43-.74.65-.25.23-.45.47,0,.84-.54.1-.95.18-1.4.27.07-.23.11-.37.17-.58-.23,0-.42-.03-.59,0-.16.03-.31.17-.47.18-.5.04-1,.07-1.49.05-.23,0-.45-.13-.68-.2-.02-.08-.04-.16-.06-.24-.6.45-1.2.91-1.81,1.34-.45.31-.91.61-1.5.59-.11,0-.33.1-.32.15.04.43-.09.71-.56.78-.08.01-.12.18-.2.25-.07.06-.16.12-.25.12-.31.03-.63-.02-.88.24-.05.05-.16.04-.25.07-.14.04-.28.08-.42.13.02.05.03.1.05.15.1-.02.21-.03.27-.04.03.41.06.79.08,1.17.03.02.07.04.1.06.22-.33.43-.37.62,0,.1-.16.18-.27.2-.3-.09-.28-.15-.48-.21-.67.73.39.72.83.09,1.31-.09-.1-.19-.2-.28-.31l-.17.03c0,.25-.1.59.02.75.31.41.13.86.04,1.17-.17.56.15.54.45.67.06-.21.1-.37.14-.53.05.01.1.02.15.03-.03.27-.06.54-.1.81.03.02.07.05.1.07.24-.21.48-.41.74-.64.03.01.12.06.26.12.39-.96.43-2.11,1.63-2.62-.32-.33-.58-.6-.85-.88-.01.01.03-.03.07-.08.07-.11.13-.22.2-.33-.12-.04-.24-.07-.35-.12-.2-.08-.41-.15-.58-.27-.26-.19-.09-.45.09-.44.42.02.84.15,1.25.26.26.07.5.2.74.31.03-.04.06-.08.08-.13-.19-.19-.49-.36-.08-.71.08.15.15.28.18.33.54-.17,1.01-.43,1.48-.42.57.02,1-.22,1.49-.4.15-.06.41.08.58.19.04.03-.04.26-.06.4-.02.14-.05.27-.07.41.05.01.1.02.15.04.1-.19.18-.39.3-.55.09-.11.24-.2.37-.22.07-.01.26.17.24.22-.04.13-.14.3-.26.35-.41.17-.52.53-.35.84.2.36.56.62.86.91.03.03.18-.03.23-.09.21-.26.5-.5.59-.8.14-.47.42-.51.82-.46.09.01.28-.13.28-.19,0-.13-.1-.26-.19-.37-.11-.12-.37-.23-.36-.31.04-.18.19-.34.35-.58.11.28.17.44.23.6.15-.02.28-.04.45-.07-.1.16-.17.28-.19.32.51.06,1.02.15,1.53.18.12,0,.28-.13.38-.24.17-.2.32-.42.47-.63.05.02.09.04.14.05l.11.97c.05.02.11.03.16.05.21-.46.43-.93.67-1.44.17.22.27.33.39.48.08-.36.14-.68.24-.98.03-.08.21-.11.33-.16.02.12.07.24.06.36,0,.08-.1.15-.14.24-.12.27-.22.54-.33.81ZM38.4,4.1c.07.66.21,1.26.19,1.85-.06,1.39-.19,2.79-.32,4.18-.05.49-.31.99-.24,1.45.11.7.45,1.37.63,2.07.09.32.39.28.46.22.27-.22.35.06.51.04.25.02.49.03.84.05v-3.43l.19-.04c.14.33.27.67.42.99.07.15.22.41.27.4.49-.12.65.29.87.53.56.64,1.28.67,2.04.68.59.01.93-.27,1.15-.76.04-.1.12-.18.18-.27-.04,0-.08,0-.12-.01.02-.46.02-.92.08-1.37.09-.65.79-.48,1.18-.79-.1-.08-.17-.19-.26-.21-.46-.09-.93-.2-1.4-.23-.6-.04-1.19,0-1.85,0,.1-.21.13-.28.16-.35-.39-.05-.74-.09-1.09-.15-.37-.07-.46-.28-.3-.63.73-1.61,1.46-3.23,2.19-4.84,0-.02-.02-.05-.05-.15-1.58,1.07-2.84,2.42-3.97,3.96-.12-.19-.25-.31-.29-.45-.17-.62-.32-1.24-.48-1.86-.14-.55-.6-.69-1.01-.86ZM47.06,27.76c-.05-.4.03-.84-.15-1.08-.4-.51-.54-1.02-.36-1.63.09-.34.19-.67.29-1.01-.76.78-1.14,1.87-2.31,2.38.09-.32.15-.54.2-.76.18-.72.39-1.44.5-2.18.04-.25-.15-.63-.35-.78-.15-.11-.56,0-.76.14-.37.26-.67.6-.98.93-.31.32-.59.67-.95,1.09-.14-.77-.45-1.3-1.17-1.39.03.31.12.61.07.89-.15.81-.33,1.61-.54,2.41-.07.24-.31.43-.43.66-.08.15-.18.38-.12.5.2.37.47.7.72,1.04.12.17.26.33.47.59.18-.37.36-.62.43-.9.2-.75.33-1.52.53-2.27.13-.46.28-.93.52-1.34.41-.71.93-1.34,1.71-1.72-.34.99-.34,2.15-1.45,2.74-.29.15-.26.39-.17.63.08.2.17.39.26.58.32.65.64,1.31.97,1.96.07.13.19.27.31.31,1.27.46,1.71.28,2.39-.73.27-.4.53-.81.85-1.29-.25.12-.39.18-.49.23ZM58.92,33.68c-.09.1-.21.25-.35.37-.08.07-.21.15-.31.14-.77-.13-1.27.25-1.7.81-.6.78-.92,1.68-1.29,2.58-.35.87-.29,1.52.51,2.04.09.06.17.14.25.21.68.61,1.52.49,2.06-.15.3-.35.55-.73.83-1.11.13.28.19.65.4.85.44.42.98.74,1.44,1.14.4.34.87.36,1.31.32.22-.02.42-.33.63-.5-.05-.02-.1-.03-.15-.05-.07-.36-.14-.73-.22-1.09-.08-.36-.1-.78-.29-1.07-.3-.44-.33-.83-.12-1.29.12-.27.22-.55.32-.82-.03-.02-.05-.03-.08-.05l-1.62,1.46c-.07-.03-.14-.06-.21-.09-.06-.83-.15-1.66-.17-2.49-.01-.54-.19-.83-.72-.95-.17-.04-.32-.16-.53-.26ZM45.87,19.21c-.15-.03-.26-.06-.28-.06v-1.25c-.12.01-.22.02-.32.03.03-.03.07-.06.1-.09-.26-.44-.47-.92-.78-1.32-.25-.34-.65-.56-.91-.89-.37-.46-.73-.6-1.28-.4-.23.09-.49.14-.64.18-.13-.22-.2-.34-.28-.47-.33.21-.76.35-.98.64-.35.47-.55,1.04-.83,1.56-.61,1.13-.61,2.14.32,3.07.07.07.12.14.18.21,1.12,1.25,2.42,1.63,3.85.95.89-.42,1.61-1.11,1.83-2.16ZM72.65,32.31c-.19.08-.25.1-.29.14-.4.44-.82.74-1.41.3-.09-.06-.23-.04-.35-.07-.07-.02-.15-.05-.21-.09-.32-.28-.64-.55-.93-.86-.38-.41-.73-.85-1.1-1.27-.12-.13-.25-.25-.38-.37-.1.4-.11.72-.1,1.03,0,.21.14.48.05.62-.22.34-.28.68-.26,1.06,0,.12-.06.29-.15.37-.26.21-.37.44-.27.78.02.07-.17.3-.22.29-.24-.06-.47-.18-.71-.27-.08-.03-.21-.08-.24-.05-.07.07-.14.21-.11.28.22.43-.09.55-.38.68-.51.23-.6.47-.32.98.17.31.27.58,0,.9-.08.09-.02.31-.02.47.17-.06.37-.09.51-.19.22-.15.4-.36.6-.55,0,.06.01.11.02.17.16.05.32.09.48.14.03-.07.06-.14.09-.2-.32-.18-.65-.35-.95-.55-.09-.06-.19-.21-.19-.32.02-.39.3-.48.73-.18.3.21.53.26.8-.04.09-.09.35-.14.46-.07.62.36,1.21.77,1.85,1.18.06-.16.1-.37.21-.55.23-.38.44-.79.75-1.1.12-.12.46-.02.7-.04.25-.03.53-.03.75-.14.22-.11.37-.34.56-.52-.7-.55-.26-1.21.03-1.94ZM53.81,49.56c-.23.22-.45.45-.7.64-.26.19-.55.34-.83.51.02.03.03.06.05.1.16-.02.32-.04.54-.07-.04.24-.07.45-.11.7.13.11.3.28.49.41.11.08.35.17.38.13.19-.23.29-.53.5-.73.24-.21.55-.35.85-.47.03-.01.19.3.34.53.33-.53,1.37-.61.89-1.66-.04-.01-.17-.02-.26-.08-.44-.31-.7-.29-1.06.09-.4.43-.71.4-1.07-.1ZM63.2,23c-.04.38-.07.62-.08.87,0,.23.04.47.01.7-.04.41-.04.86-.21,1.22-.09.19-.48.24-.74.36-.09.04-.17.07-.26.1-.29.07-.26.22-.09.39.37.38.86.55,1.35.41.53-.16.91-.56.95-1.16.03-.4.03-.81.02-1.21-.03-.67-.28-1.22-.94-1.67ZM48.63,23.02c.06,0,.1,0,.12-.02.19-.24.36-.51.58-.73.11-.11.3-.14.46-.21.03.04.05.08.08.12.07-.14.14-.27.2-.4.57.04.82-.1.81-.51,0-.25-.06-.6-.23-.72-.53-.39-1.13-.71-1.7-1.04-.05-.03-.14,0-.22,0,.46,1.2.13,2.35-.09,3.51ZM75.77,23.99c.07.03.14.06.22.08-.04.38-.1.76-.12,1.15-.02.36.24.55.55.57.12,0,.26-.24.38-.37-.03-.03-.06-.07-.09-.1h-.3c.04-.39.1-.76.1-1.13,0-.45-.26-.67-.65-.52-.38.16-.72.19-1.1.03-.13-.05-.32.02-.44.03.04.21.12.38.09.52-.08.36-.2.71-.34,1.05-.15.37,0,.59.3.77.32.19.56.06.67-.24.16-.42.26-.86.41-1.28.07-.19.19-.37.29-.55ZM72.89,24.19c-.31-.11-.61-.25-.92-.31-.17-.03-.46.04-.53.16-.25.41-.48.86-.63,1.31-.13.39.14.78.53.88.38.1.63-.07.79-.53.02-.06.06-.13.05-.11.38.25.75.5,1.22.81v-.85c-.59,0-.73-.4-.5-1.38ZM66.95,24.66c-.27-.08-.51-.11-.7-.22-.37-.21-.71-.16-.9.16-.25.42-.45.89-.55,1.36-.08.36.18.65.55.75.39.11.62-.11.76-.44.04-.09.07-.18.13-.34.27.49.61.77,1.17.79v-.69c-.15-.03-.3-.01-.37-.07-.46-.38-.28-.83-.09-1.3ZM68.35,27.5c.05,0,.1,0,.16,0,.11-.2.24-.39.31-.6.14-.43.38-.74.73-1.04.27-.23.49-.57.63-.91.22-.53-.04-.98-.56-.97-.56.01-1.17.02-1.59.51-.02.03-.02.08-.03.14.13-.02.24-.04.44-.07-.09.78-.2,1.5-.25,2.22-.02.23.11.48.18.72ZM74.45,32.07c.06.06.11.11.17.17.26-.22.53-.43.78-.65.15-.13.26-.3.42-.41.27-.19.58-.32.85-.52.14-.1.23-.28.39-.49-.5-.03-.72.74-1.18.23-.49.58-.96,1.12-1.43,1.67ZM72.62,33.56c.51-.5.97-.96,1.45-1.42-.92-.28-.92.67-1.38,1.01-.08.06-.05.27-.07.41ZM44.43,3.27s0,.02,0,.03c0,0-.02,0-.03,0,0-.01,0-.02,0-.03,0,0,.02,0,.03,0Z"/>
      <path class="cls-21" d="M0,55.66h110s-.03.09-.05.09c-.12,0-.25,0-.38,0-36.38,0-72.77,0-109.15,0-.14,0-.28-.06-.42-.09Z"/>
      <path class="cls-8" d="M61.01,13.35c-.06.02-.12.03-.18.05-.35.08-.69.16-1.04.23-.06.02-.12.04-.18.06-.16.04-.32.08-.48.12-.06.02-.12.03-.18.05-.06.01-.12.03-.18.04-.04.01-.09.02-.13.03-.18.03-.36.06-.54.08-.06.01-.12.02-.18.04-.13.01-.25.03-.38.04-.12.02-.25.03-.37.05-.47,0-.93,0-1.4,0-.06,0-.12-.01-.18-.02.03-.08.05-.15.08-.23.13,0,.25,0,.38,0,.19-.02.38-.04.57-.05.09-.02.18-.03.27-.05.07-.01.13-.03.2-.04.2-.06.41-.12.61-.17.07-.05.13-.1.2-.15-.07-.02-.14-.05-.21-.07-.33,0-.65,0-.98.01-.1-.02-.19-.03-.29-.05-1.79-.25-3.36-1.7-3.66-3.38-.01-.06-.02-.13-.04-.19-.02-.22-.05-.43-.07-.65,0-.16,0-.31,0-.47.02-.15.04-.31.06-.46l.04-.19c.01-.06.02-.12.03-.18.02-.06.04-.13.06-.19.49-1.56,1.51-2.58,3.1-3.01.06-.02.13-.03.19-.05l1.49-.08c.1.01.19.02.29.04.41.13.82.26,1.23.39.08,0,.16,0,.23.01,0-.07.01-.18-.02-.21-.12-.08-.26-.14-.39-.2-.1-.07-.19-.14-.29-.2-.08-.05-.16-.1-.24-.14-.26-.11-.53-.22-.79-.34-.06-.02-.13-.05-.19-.07-.08-.01-.15-.03-.23-.04-3.38-.8-6.42,1.58-6.46,5.05-.01,1.17.38,2.24,1.06,3.14.45.59,1.17.98,1.77,1.46.08.04.17.08.25.12.04.02.08.03.13.05-.17.04-.34.08-.5.12-.04,0-.06-.02-.06-.06-.04-.01-.08-.03-.11-.04-.4-.19-.8-.38-1.19-.57-.01.04-.03.08-.04.13,2.45,2.28,5.32,3.14,8.77,2.42-.69.71-1.4,1.03-2.24.9-.98-.15-1.95-.36-2.92-.53-.04,0-.09,0-.23.02.75.62,1.63.76,2.45,1.01,0,.05,0,.1,0,.15-.5.05-1,.15-1.5.15-3.25.02-5.71-1.36-7.13-4.29-1.37-2.82-.99-5.56.9-8.02,2.49-3.23,7.34-3.8,10.57-1.3.07.06.14.13.21.19.07.06.13.11.2.17.25.25.5.5.75.75.05.07.11.13.16.2.04.05.09.11.13.16.05.07.1.14.16.21.03.01.04.03.04.06.05.07.1.15.14.22.03.01.04.04.04.07.05.07.1.14.14.21.02.04.05.08.07.13.06.12.12.23.18.35.04.07.07.14.11.22.11.3.23.6.34.9.01.04.03.09.04.13.05.21.1.42.15.63.02.09.03.19.05.28.02.19.05.38.07.57,0,.16.02.31.03.47,0,.09,0,.18,0,.27,0,.09,0,.19,0,.28-.03.28-.07.56-.1.84-.01.06-.02.12-.03.18-.16.51-.32,1.03-.47,1.54-.02.05-.04.1-.06.15-.05.07-.09.14-.14.2,0,0,0,0,0,0-.29.07-.57.13-.86.2-.06.01-.12.03-.19.04-.13.02-.25.04-.38.06-.06.02-.12.03-.18.05-.1.02-.19.03-.29.05ZM60.67,10.14c.03-.06.05-.13.08-.19.06-.5.11-1,.17-1.5l-.05-.29c-.01-.09-.03-.18-.04-.28-.02-.06-.03-.13-.05-.19-.02-.08-.05-.15-.07-.23-.05-.11-.09-.22-.14-.34-.56-1.06-1.39-1.79-2.56-2.1-.06-.02-.13-.04-.19-.06-.28-.02-.56-.04-.84-.07-.1,0-.2,0-.29,0-.12.02-.25.04-.37.05-.06.02-.13.04-.19.06-.1.03-.2.07-.3.1-.09.03-.18.07-.27.1-1,.48-1.7,1.25-2.1,2.28-.02.06-.05.13-.07.19-.03.53-.06,1.07-.09,1.6.01.06.03.13.04.19.05.15.1.3.15.45.07.06.13.12.2.18,0-.12,0-.23,0-.35,0-.06,0-.12,0-.19,0-.09,0-.19,0-.28.02-.12.03-.25.05-.37.02-.06.04-.13.06-.19.31-1.24,1.35-2.17,2.62-2.35.13-.01.25-.03.38-.04.06,0,.12,0,.18-.01l.29.04c.31.07.62.14.94.21.09.04.18.08.26.12.96.48,1.55,1.23,1.71,2.3.01.06.03.13.04.19-.05.59-.09,1.18-.14,1.77.03,0,.05.01.08.02.17-.28.34-.57.51-.85Z"/>
      <path class="cls-20" d="M64.14,49.02c.11-.27.22-.54.33-.81.04-.08.13-.16.14-.24,0-.12-.04-.24-.06-.36-.11.05-.3.08-.33.16-.11.3-.16.62-.24.98-.12-.15-.21-.26-.39-.48-.24.51-.45.98-.67,1.44-.05-.02-.11-.03-.16-.05l-.11-.97s-.09-.04-.14-.05c-.16.21-.3.44-.47.63-.1.11-.26.25-.38.24-.51-.03-1.02-.12-1.53-.18.02-.04.09-.15.19-.32-.17.03-.3.05-.45.07-.06-.16-.12-.32-.23-.6-.16.24-.32.4-.35.58-.01.07.25.19.36.31.09.1.18.24.19.37,0,.06-.19.2-.28.19-.4-.05-.67-.01-.82.46-.09.3-.38.55-.59.8-.05.06-.2.11-.23.09-.3-.29-.66-.56-.86-.91-.17-.31-.07-.67.35-.84.12-.05.21-.22.26-.35.02-.05-.17-.23-.24-.22-.13.02-.29.11-.37.22-.13.16-.21.36-.3.55-.05-.01-.1-.02-.15-.04.02-.14.05-.27.07-.41.02-.14.11-.38.06-.4-.17-.1-.42-.24-.58-.19-.49.18-.92.41-1.49.4-.46-.01-.93.25-1.48.42-.03-.05-.1-.18-.18-.33-.41.36-.11.53.08.71-.03.04-.06.08-.08.13-.25-.1-.49-.24-.74-.31-.41-.12-.83-.24-1.25-.26-.18,0-.35.25-.09.44.17.12.38.19.58.27.11.05.23.08.35.12-.07.11-.13.22-.2.33-.03.05-.08.09-.07.08.27.28.53.55.85.88-1.2.51-1.24,1.66-1.63,2.62-.14-.07-.23-.11-.26-.12-.26.23-.5.43-.74.64-.03-.02-.07-.05-.1-.07.03-.27.06-.54.1-.81-.05-.01-.1-.02-.15-.03-.04.16-.08.32-.14.53-.3-.13-.61-.11-.45-.67.09-.31.27-.77-.04-1.17-.12-.16-.02-.49-.02-.75l.17-.03c.09.1.19.21.28.31.63-.48.64-.92-.09-1.31.06.2.12.4.21.67-.02.03-.09.14-.2.3-.19-.38-.4-.34-.62,0-.03-.02-.07-.04-.1-.06-.03-.38-.05-.76-.08-1.17-.06,0-.16.03-.27.04-.02-.05-.03-.1-.05-.15.14-.04.28-.09.42-.13.08-.02.2-.02.25-.07.25-.26.57-.21.88-.24.09,0,.18-.06.25-.12.08-.07.12-.24.2-.25.47-.07.6-.34.56-.78,0-.04.21-.15.32-.15.59.02,1.05-.28,1.5-.59.62-.43,1.21-.89,1.81-1.34.02.08.04.16.06.24.23.07.45.19.68.2.5.02,1-.01,1.49-.05.16-.01.31-.15.47-.18.17-.03.36,0,.59,0-.06.21-.1.35-.17.58.45-.09.87-.16,1.4-.27-.45-.38-.25-.62,0-.84.24-.22.47-.45.74-.65.32-.23.32-.54.31-.88-.03-.59.4-.9.96-.73-.19.3-.39.59-.57.9-.04.07-.03.21.01.29.03.05.18.09.24.06.59-.26,1.2-.49,1.76-.82.28-.16.45-.49.69-.73.12-.13.26-.26.42-.34.38-.19.82-.29.64-.89-.03-.11.09-.29.17-.42.23-.37.51-.71.72-1.09.36-.63.25-.87-.42-1.12-.06-.02-.11-.05-.24-.11.14-.12.25-.21.35-.31.09-.1.26-.23.24-.31-.15-.71.62-.92.7-1.49.05,0,.1,0,.15-.01.1.2.2.41.32.65.2-.26.89.17.77-.61h-.67c.06-.2.12-.38.16-.51.28.05.52.1.79.15,0,.36-.06.81.02,1.24.08.45.26.91.48,1.31.32.6.18,1.15-.07,1.69-.2.46-.46.89-.7,1.35-.45-.08-.72.14-.72.69,0,.26.07.53.05.79-.03.31-.15.61-.21.92-.13.64-.66,1.23-.23,1.95.19.31-.16.4-.34.56-.17.15-.31.34-.46.51-.21.25-.42.51-.63.76-.08-.05-.17-.11-.25-.16ZM62.49,46.17c0,.52.41.94.91.93.51,0,.92-.42.92-.93,0-.53-.44-.95-.97-.93-.49.02-.87.43-.86.92Z"/>
      <path class="cls-8" d="M57.64,24.22s.02.09.03.14c.02.62.05,1.24.07,1.85-.03.05-.06.1-.09.15l-.09.23c-.04.11-.09.23-.13.34-.12.32-.23.63-.35.95v.09c-.07.07-.15.13-.18.21-.41,1.17-.82,2.35-1.22,3.53-.01.04,0,.09,0,.14-.05.15-.1.29-.15.44-.1.24-.2.48-.3.72l-.09.12c-.04.08-.07.16-.11.24-.03.05-.06.09-.08.14-.04.1-.09.2-.13.3,0,.03,0,.06-.04.07-.09.15-.17.31-.26.46-.04.06-.08.13-.13.19-.14.26-.27.53-.41.79-.04.11-.09.23-.13.34-.12.35-.23.69-.35,1.04,0,.06,0,.12-.01.19-.03.07-.06.13-.09.2,0,.03,0,.06-.04.07-.11.19-.23.38-.34.58,0,.03-.02.06-.05.08l-.1.25c-.05.07-.1.15-.16.22-.05.07-.11.14-.16.21-.15.16-.31.31-.46.47-.06.06-.13.13-.19.19h0c-.07.05-.14.1-.21.15-.02.02-.05.04-.08.03-.07.05-.14.09-.21.14-.14.02-.29.04-.43.07l-.21.03c-.25.01-.51.03-.76.04-.06-.02-.12-.04-.18-.06-.13,0-.25.02-.38.02-.22-.08-.44-.17-.67-.25-.12-.05-.24-.1-.36-.14.09-.18.17-.36.26-.53,0-.04,0-.09,0-.13-.14-.42-.27-.84-.41-1.26-.05-.12-.09-.24-.14-.35-.11-.34-.37-.45-.71-.43-.07-.03-.14-.06-.22-.09-.06-.03-.13-.05-.19-.08-.09,0-.18,0-.28-.01-.07-.03-.13-.05-.2-.08-.06,0-.12,0-.19,0-.1-.02-.19-.05-.29-.07-.09,0-.19,0-.28.01-.03-.05-.06-.1-.11-.17.39-.04.76-.05,1.12-.12.48-.09.96-.23,1.44-.35.22-.03.44-.06.66-.09.19-.06.38-.13.57-.19.05-.01.1-.03.15-.04l.23-.13c.06-.01.12-.03.17-.04.07-.05.14-.1.2-.15.03-.04.07-.08.1-.13.05-.1.1-.21.16-.31,0-.03.01-.05.04-.06.08-.14.16-.27.25-.41.07-.12.14-.23.22-.35.12-.19.24-.38.36-.58,0-.03.02-.05.04-.07l.31-.52s.06-.09.09-.13c.11-.19.22-.38.33-.57.01-.03.03-.06.04-.09.06-.12.13-.23.19-.35.03-.04.06-.08.09-.12.19-.22.54-.39.28-.77l-1-.91c-.1-.1-.19-.19-.29-.29-.03,0-.05-.02-.06-.05-.13-.11-.26-.22-.39-.33-.03-.03-.07-.06-.1-.09l-.15-.2c-.01-.05-.03-.11-.04-.16-.05-.07-.09-.14-.14-.22-.05-.08-.1-.16-.15-.24-.06-.07-.12-.14-.18-.21l-.85-.73c-.06-.07-.12-.14-.18-.2-.03-.03-.06-.06-.09-.08,0-.16,0-.32,0-.48.06,0,.12,0,.19,0,.07.03.15.05.22.08.05,0,.1,0,.15,0,.08.03.15.06.23.08.11.03.22.07.33.1.14.06.28.13.41.19.05.03.1.05.15.08.39.16.78.32,1.17.48.08.05.17.09.25.14.06.03.13.06.19.09l.25-.2c.07-.14.14-.27.21-.41.04-.06.07-.11.11-.17.08-.04.15-.09.28-.16-.09.29-.2.53-.24.79-.04.34-.14.72.34.87.06.04.12.08.17.12.06.05.12.09.19.14.04-.06.07-.11.11-.17.02-.03.04-.05.06-.08.11-.32.21-.64.32-.95,0-.03.01-.06.02-.09.03-.06.05-.13.08-.19,0-.03.01-.06.02-.09.12-.27.27-.54.37-.82.24-.65.46-1.31.68-1.97.07-.16.14-.33.21-.49.26-.29.3-.56-.09-.78-.02-.09-.03-.18-.05-.27.09-.17.18-.34.28-.52.06,0,.11,0,.17,0,.09.05.18.11.27.16,0,0,.01.01.01.01.09.09.17.18.26.26.05.05.1.11.14.16.11.13.22.27.33.4.11.15.21.3.32.45.16.26.31.51.47.77Z"/>
      <path class="cls-8" d="M38.4,4.1c.41.18.87.31,1.01.86.15.62.3,1.25.48,1.86.04.15.17.27.29.45,1.13-1.54,2.39-2.9,3.97-3.96.03.09.06.13.05.15-.73,1.62-1.46,3.23-2.19,4.84-.16.35-.07.56.3.63.35.06.71.1,1.09.15-.03.07-.07.14-.16.35.66,0,1.26-.03,1.85,0,.47.03.94.13,1.4.23.09.02.16.13.26.21-.4.31-1.09.15-1.18.79-.06.45-.06.91-.08,1.37.04,0,.08,0,.12.01-.06.09-.14.17-.18.27-.23.5-.57.77-1.15.76-.76-.01-1.48-.04-2.04-.68-.21-.25-.38-.65-.87-.53-.06.01-.2-.25-.27-.4-.15-.32-.28-.66-.42-.99l-.19.04v3.43c-.35-.02-.6-.04-.84-.05-.16.01-.24-.27-.51-.04-.07.06-.37.1-.46-.22-.19-.7-.53-1.36-.63-2.07-.07-.46.2-.96.24-1.45.13-1.39.25-2.78.32-4.18.03-.59-.11-1.19-.19-1.85Z"/>
      <path class="cls-4" d="M47.06,27.76c.11-.05.25-.12.49-.23-.31.48-.58.89-.85,1.29-.68,1-1.12,1.19-2.39.73-.13-.05-.25-.19-.31-.31-.34-.65-.65-1.3-.97-1.96-.09-.19-.19-.39-.26-.58-.09-.24-.12-.48.17-.63,1.11-.58,1.11-1.74,1.45-2.74-.78.38-1.3,1.02-1.71,1.72-.24.41-.4.88-.52,1.34-.2.75-.34,1.52-.53,2.27-.07.28-.25.54-.43.9-.21-.26-.35-.42-.47-.59-.25-.34-.52-.67-.72-1.04-.06-.11.04-.35.12-.5.12-.23.37-.42.43-.66.22-.79.4-1.6.54-2.41.05-.28-.04-.58-.07-.89.72.09,1.03.62,1.17,1.39.36-.42.64-.77.95-1.09.31-.33.62-.67.98-.93.2-.14.61-.24.76-.14.21.14.39.53.35.78-.1.73-.32,1.45-.5,2.18-.05.22-.12.44-.2.76,1.17-.5,1.55-1.6,2.31-2.38-.1.34-.19.67-.29,1.01-.17.61-.04,1.12.36,1.63.18.23.11.67.15,1.08Z"/>
      <path class="cls-24" d="M58.92,33.68c.21.11.36.23.53.26.53.12.71.41.72.95.02.83.11,1.66.17,2.49.07.03.14.06.21.09l1.62-1.46s.05.03.08.05c-.11.27-.2.55-.32.82-.21.46-.18.85.12,1.29.2.29.21.71.29,1.07.08.36.15.72.22,1.09.05.02.1.03.15.05-.21.18-.4.48-.63.5-.45.05-.92.02-1.31-.32-.47-.4-1-.72-1.44-1.14-.21-.21-.28-.57-.4-.85-.28.38-.53.76-.83,1.11-.55.64-1.38.76-2.06.15-.08-.07-.16-.15-.25-.21-.81-.52-.87-1.18-.51-2.04.37-.9.69-1.8,1.29-2.58.43-.56.93-.95,1.7-.81.09.02.22-.06.31-.14.14-.12.26-.27.35-.37ZM58.43,34.79c-.66-.33-1.21-.22-1.61.42-.63,1.03-.93,2.16-.8,3.39.04.38.25.45.49.25.41-.35.8-.73,1.14-1.15.23-.28.43-.63.51-.98.14-.61.18-1.25.27-1.94Z"/>
      <path class="cls-24" d="M45.87,19.21c-.22,1.05-.94,1.74-1.83,2.16-1.43.68-2.73.3-3.85-.95-.06-.07-.12-.15-.18-.21-.93-.93-.93-1.94-.32-3.07.28-.52.48-1.09.83-1.56.22-.29.65-.43.98-.64.07.13.15.25.28.47.15-.04.4-.09.64-.18.54-.21.91-.07,1.28.4.26.33.66.56.91.89.31.41.52.88.78,1.32-.03.03-.07.06-.1.09.1,0,.2-.02.32-.03v1.25s.13.03.28.06ZM40.19,18.63c.13.5.35.87.75,1.11.33.2.69.39,1.1.16.8-.44,1.26-1.41,1.12-2.37-.15-.99-.48-1.29-1.6-1.54-.26-.06-.44,0-.53.23-.29.8-.56,1.6-.83,2.41Z"/>
      <path class="cls-23" d="M72.65,32.31c-.29.73-.73,1.39-.03,1.94-.19.18-.34.41-.56.52-.22.11-.49.12-.75.14-.24.03-.58-.08-.7.04-.3.32-.52.72-.75,1.1-.11.18-.15.39-.21.55-.64-.41-1.24-.82-1.85-1.18-.11-.06-.37-.02-.46.07-.28.3-.5.25-.8.04-.42-.29-.7-.21-.73.18,0,.1.09.25.19.32.31.2.63.37.95.55-.03.07-.06.14-.09.2-.16-.05-.32-.09-.48-.14,0-.06-.01-.11-.02-.17-.2.18-.38.39-.6.55-.14.1-.34.13-.51.19,0-.16-.06-.37.02-.47.27-.32.17-.59,0-.9-.28-.51-.19-.75.32-.98.29-.13.6-.25.38-.68-.03-.06.05-.21.11-.28.03-.03.16.02.24.05.24.09.46.21.71.27.05.01.24-.21.22-.29-.1-.34.01-.56.27-.78.09-.08.16-.25.15-.37-.02-.38.04-.72.26-1.06.09-.14-.04-.41-.05-.62-.01-.31,0-.62.1-1.03.13.12.26.24.38.37.37.42.71.86,1.1,1.27.29.31.62.58.93.86.05.05.13.08.21.09.12.03.26,0,.35.07.59.44,1.01.14,1.41-.3.04-.04.1-.05.29-.14Z"/>
      <path class="cls-24" d="M53.81,49.56c.36.5.67.53,1.07.1.36-.38.62-.4,1.06-.09.09.06.23.07.26.08.48,1.05-.56,1.12-.89,1.66-.14-.23-.31-.55-.34-.53-.3.12-.62.26-.85.47-.21.19-.31.5-.5.73-.03.04-.27-.06-.38-.13-.19-.13-.36-.29-.49-.41.04-.25.07-.45.11-.7-.23.03-.39.05-.54.07-.02-.03-.03-.06-.05-.1.28-.17.57-.31.83-.51.25-.19.47-.42.7-.64Z"/>
      <path class="cls-18" d="M63.2,23c.66.46.92,1.01.94,1.67.02.4.01.81-.02,1.21-.05.6-.42,1-.95,1.16-.49.15-.97-.03-1.35-.41-.17-.17-.2-.32.09-.39.09-.02.18-.06.26-.1.26-.11.65-.17.74-.36.16-.36.16-.81.21-1.22.02-.23-.02-.47-.01-.7,0-.25.04-.49.08-.87Z"/>
      <path class="cls-17" d="M48.63,23.02c.22-1.16.55-2.3.09-3.51.08,0,.17-.03.22,0,.58.34,1.17.65,1.7,1.04.17.12.22.47.23.72,0,.41-.24.55-.81.51-.06.13-.13.26-.2.4-.03-.04-.05-.08-.08-.12-.15.07-.35.1-.46.21-.22.22-.39.48-.58.73-.01.02-.06,0-.12.02Z"/>
      <path class="cls-2" d="M75.77,23.99c-.1.18-.22.36-.29.55-.15.42-.25.87-.41,1.28-.12.3-.35.43-.67.24-.3-.18-.45-.4-.3-.77.14-.34.25-.7.34-1.05.03-.14-.05-.31-.09-.52.12,0,.3-.08.44-.03.38.15.72.12,1.1-.03.38-.16.65.06.65.52,0,.37-.07.74-.1,1.13h.3s.06.07.09.1c-.13.13-.26.38-.38.37-.31-.01-.57-.21-.55-.57.02-.38.08-.77.12-1.15-.07-.03-.14-.06-.22-.08Z"/>
      <path class="cls-6" d="M72.89,24.19c-.23.99-.1,1.39.5,1.38v.85c-.47-.31-.84-.56-1.22-.81,0-.02-.03.04-.05.11-.16.46-.41.63-.79.53-.39-.11-.67-.49-.53-.88.16-.46.38-.9.63-1.31.08-.12.36-.19.53-.16.32.05.62.2.92.31ZM71.29,25.45c.35-.4.65-.73.95-1.07-.62-.26-1,.16-.95,1.07Z"/>
      <path class="cls-2" d="M66.95,24.66c-.19.47-.37.93.09,1.3.08.06.22.05.37.07v.69c-.56-.02-.9-.29-1.17-.79-.06.16-.09.25-.13.34-.15.33-.37.55-.76.44-.38-.1-.63-.4-.55-.75.1-.47.31-.94.55-1.36.19-.33.53-.37.9-.16.19.11.42.14.7.22ZM65.34,25.89c.35-.39.64-.71.93-1.02-.02-.05-.04-.09-.06-.14-.19.03-.42,0-.56.11-.31.22-.41.56-.32,1.05Z"/>
      <path class="cls-2" d="M68.35,27.5c-.06-.24-.19-.48-.18-.72.05-.72.16-1.44.25-2.22-.2.03-.3.05-.44.07.01-.06,0-.11.03-.14.43-.49,1.03-.5,1.59-.51.52-.01.78.44.56.97-.14.34-.36.68-.63.91-.35.29-.59.61-.73,1.04-.07.21-.2.4-.31.6-.05,0-.1,0-.16,0ZM69.21,25.57c.33-.36.7-.65.53-1.11-.05-.13-.5-.11-.8-.16.1.48.18.84.27,1.28Z"/>
      <path class="cls-14" d="M74.45,32.07c.47-.55.93-1.09,1.43-1.67.47.51.68-.25,1.18-.23-.16.2-.24.38-.39.49-.27.19-.58.33-.85.52-.16.11-.27.28-.42.41-.26.22-.52.43-.78.65-.06-.06-.11-.11-.17-.17Z"/>
      <path class="cls-11" d="M53.31,28.15c-.48-.15-.38-.53-.34-.87.03-.25.14-.49.24-.79-.12.07-.2.12-.28.16.37-.62.74-1.23,1.12-1.85-.01,0-.03-.01-.04-.02-.06.17-.12.33-.18.5-.24.65-.47,1.3-.71,1.94-.13.36-.08.66.2.93Z"/>
      <path class="cls-11" d="M55.67,31.84s-.02-.1,0-.14c.4-1.18.81-2.35,1.22-3.53.03-.08.11-.14.17-.21-.46,1.29-.92,2.58-1.39,3.87Z"/>
      <path class="cls-22" d="M72.62,33.56c.02-.14-.01-.35.07-.41.45-.34.46-1.29,1.38-1.01-.47.46-.94.92-1.45,1.42Z"/>
      <path class="cls-11" d="M48.24,35.5c-.48.12-.96.26-1.44.35-.36.07-.73.08-1.12.12.04.07.07.12.11.17-.16-.02-.32-.03-.48-.05-.03-.07-.05-.14-.08-.21l3.01-.38Z"/>
      <path class="cls-5" d="M53.46,13.63c.17-.04.34-.08.5-.12.09.04.19.07.28.11.05.08.11.16.16.24.07-.05.14-.1.21-.15.13.03.25.06.38.09.02.07.05.14.07.21.04-.06.07-.12.11-.18.16.02.32.04.48.06-.03.08-.05.15-.08.23-.7-.16-1.41-.32-2.11-.49Z"/>
      <path class="cls-11" d="M55.32,24.06c-.23.66-.44,1.32-.68,1.97-.1.28-.25.55-.37.82.35-.93.7-1.86,1.05-2.79Z"/>
      <path class="cls-11" d="M57.74,26.21c-.02-.62-.05-1.24-.07-1.85.28.45.32,1.51.07,1.85Z"/>
      <path class="cls-5" d="M63.1,12.6c.16-.51.32-1.03.47-1.54-.16.51-.32,1.03-.47,1.54Z"/>
      <path class="cls-5" d="M55.76,14.13c.47,0,.93,0,1.4,0-.47,0-.93,0-1.4,0Z"/>
      <path class="cls-11" d="M48.27,37.25c.14.42.27.84.41,1.26-.14-.42-.27-.84-.41-1.26Z"/>
      <path class="cls-11" d="M51.92,27.2c-.39-.16-.78-.32-1.17-.48.39.16.78.32,1.17.48Z"/>
      <path class="cls-11" d="M57.07,27.88c.12-.32.23-.63.35-.95-.12.32-.23.63-.35.95Z"/>
      <path class="cls-11" d="M54.15,27.22c-.11.32-.21.64-.32.95.11-.32.21-.64.32-.95Z"/>
      <path class="cls-11" d="M53.51,36.7c.12-.35.23-.69.35-1.04-.12.35-.23.69-.35,1.04Z"/>
      <path class="cls-5" d="M59.78,13.63c.35-.08.69-.16,1.04-.23-.35.08-.69.16-1.04.23Z"/>
      <path class="cls-11" d="M57.64,24.22c-.16-.26-.31-.51-.47-.77.16.26.31.51.47.77Z"/>
      <path class="cls-11" d="M48.69,38.65c-.09.18-.17.36-.26.53-.08-.04-.17-.09-.26-.14.19-.15.36-.27.52-.4Z"/>
      <path class="cls-5" d="M63.61,10.88c.03-.28.07-.56.1-.84-.03.28-.07.56-.1.84Z"/>
      <path class="cls-11" d="M55.45,22.79c.39.22.35.49.09.78-.03-.26-.06-.52-.09-.78Z"/>
      <path class="cls-11" d="M49.08,26.19c0,.16,0,.32,0,.48-.13-.16-.25-.32-.46-.58.25.05.36.08.47.1Z"/>
      <path class="cls-11" d="M53.98,35.32c.14-.26.27-.53.41-.79-.14.26-.27.53-.41.79Z"/>
      <path class="cls-5" d="M63.37,7.42c-.11-.3-.23-.6-.34-.9.11.3.23.6.34.9Z"/>
      <path class="cls-11" d="M52.7,30.4c.26.39-.09.55-.28.77.09-.26.19-.52.28-.77Z"/>
      <path class="cls-5" d="M62.04,13.15c.29-.07.57-.13.86-.2-.29.07-.57.13-.86.2Z"/>
      <path class="cls-11" d="M47.42,36.47c.33-.02.59.09.71.43-.24-.14-.47-.29-.71-.43Z"/>
      <path class="cls-11" d="M55.67,22.01c-.09.17-.18.34-.28.52.09-.17.18-.34.28-.52Z"/>
      <path class="cls-11" d="M48.8,39.33l.67.25-.67-.25Z"/>
      <path class="cls-11" d="M55.23,32.99c.1-.24.2-.48.3-.72-.1.24-.2.48-.3.72Z"/>
      <path class="cls-11" d="M52.09,31.74c-.11.19-.22.38-.33.57.11-.19.22-.38.33-.57Z"/>
      <path class="cls-11" d="M53.03,37.73c.11-.19.23-.38.34-.58-.11.19-.23.38-.34.58Z"/>
      <path class="cls-11" d="M51.33,33.03c-.12.19-.24.38-.36.58.12-.19.24-.38.36-.58Z"/>
      <path class="cls-5" d="M63.56,8.18c-.05-.21-.1-.42-.15-.63.05.21.1.42.15.63Z"/>
      <path class="cls-11" d="M51.68,32.43l-.31.52c.1-.17.2-.35.31-.52Z"/>
      <path class="cls-11" d="M49.46,35.22c-.19.06-.38.13-.57.19.19-.06.38-.13.57-.19Z"/>
      <path class="cls-5" d="M63.68,9.02c-.02-.19-.05-.38-.07-.57.02.19.05.38.07.57Z"/>
      <path class="cls-11" d="M56.85,23c-.11-.13-.22-.27-.33-.4.11.13.22.27.33.4Z"/>
      <path class="cls-11" d="M50.96,28.81c.13.11.26.22.39.33-.13-.11-.26-.22-.39-.33Z"/>
      <path class="cls-5" d="M58.09,14.02c.18-.03.36-.06.54-.08-.18.03-.36.06-.54.08Z"/>
      <path class="cls-11" d="M54.52,34.34c.09-.15.17-.31.26-.46-.09.15-.17.31-.26.46Z"/>
      <path class="cls-5" d="M59.13,13.81c.16-.04.32-.08.48-.12-.16.04-.32.08-.48.12Z"/>
      <path class="cls-11" d="M45.03,36.12h-.25c.11-.09.19-.15.26-.21,0,.07,0,.14-.01.21Z"/>
      <path class="cls-5" d="M61.48,13.26c.13-.02.25-.04.38-.06-.13.02-.25.04-.38.06Z"/>
      <path class="cls-11" d="M50.6,26.64c-.14-.06-.28-.13-.41-.19.14.06.28.13.41.19Z"/>
      <path class="cls-5" d="M57.53,14.09c.13-.01.25-.03.38-.04-.13.01-.25.03-.38.04Z"/>
      <path class="cls-11" d="M52.82,26.82c-.07.14-.14.27-.21.41.07-.14.14-.27.21-.41Z"/>
      <path class="cls-11" d="M50.75,33.95c-.08.14-.16.27-.25.41.08-.14.16-.27.25-.41Z"/>
      <path class="cls-8" d="M45.03,36.12c0-.07,0-.14.01-.21.06,0,.12-.02.18-.02.03.07.05.14.08.21-.09,0-.18.02-.27.03Z"/>
      <path class="cls-5" d="M62.92,6.3c-.06-.12-.12-.23-.18-.35.06.12.12.23.18.35Z"/>
      <path class="cls-11" d="M56.37,22.44c-.09-.09-.17-.18-.26-.26.09.09.17.18.26.26Z"/>
      <path class="cls-11" d="M51.41,29.2c.1.1.19.19.29.29-.1-.1-.19-.19-.29-.29Z"/>
      <path class="cls-11" d="M52.33,31.3c-.06.12-.13.23-.19.35.06-.12.13-.23.19-.35Z"/>
      <path class="cls-5" d="M63.71,9.75c0-.09,0-.18,0-.27,0,.09,0,.18,0,.27Z"/>
      <path class="cls-11" d="M50.47,34.42c-.05.1-.1.21-.16.31.05-.1.1-.21.16-.31Z"/>
      <path class="cls-11" d="M53.78,28.25c-.04.06-.07.11-.11.17-.06-.05-.12-.09-.19-.14.1,0,.19-.02.29-.02Z"/>
      <path class="cls-5" d="M61.01,13.35c.1-.02.19-.03.29-.05-.1.02-.19.03-.29.05Z"/>
      <path class="cls-11" d="M46.07,36.13c.1.02.19.05.29.07-.1-.02-.19-.05-.29-.07Z"/>
      <path class="cls-11" d="M56.1,22.16c-.09-.05-.18-.11-.27-.16.09.05.18.11.27.16Z"/>
      <path class="cls-11" d="M54.82,33.8c.04-.1.09-.2.13-.3-.04.1-.09.2-.13.3Z"/>
      <path class="cls-11" d="M50.2,27.69c.06.07.12.14.18.21-.06-.07-.12-.14-.18-.21Z"/>
      <path class="cls-11" d="M50.53,28.15c.05.07.09.14.14.22-.05-.07-.09-.14-.14-.22Z"/>
      <path class="cls-11" d="M50.71,28.52l.15.2-.15-.2Z"/>
      <path class="cls-5" d="M62.31,5.26c-.05-.07-.1-.14-.16-.21.05.07.1.14.16.21Z"/>
      <path class="cls-5" d="M62.9,12.96l.14-.2-.14.2Z"/>
      <path class="cls-5" d="M61.12,3.94c-.07-.06-.13-.11-.2-.17.07.06.13.11.2.17Z"/>
      <path class="cls-11" d="M55.03,33.36c.04-.08.07-.16.11-.24-.04.08-.07.16-.11.24Z"/>
      <path class="cls-5" d="M62.03,4.89c-.05-.07-.11-.13-.16-.2.05.07.11.13.16.2Z"/>
      <path class="cls-11" d="M50.22,34.86c-.07.05-.14.1-.2.15.07-.05.14-.1.2-.15Z"/>
      <path class="cls-11" d="M49.84,35.05l-.23.13c.08-.04.15-.09.23-.13Z"/>
      <path class="cls-5" d="M62.49,5.54c-.05-.07-.1-.15-.14-.22.05.07.1.15.14.22Z"/>
      <path class="cls-5" d="M62.67,5.83c-.05-.07-.1-.14-.14-.21.05.07.1.14.14.21Z"/>
      <path class="cls-5" d="M58.76,13.9c.06-.01.12-.03.18-.04-.06.01-.12.03-.18.04Z"/>
      <path class="cls-11" d="M49.49,26.26c-.07-.03-.15-.05-.22-.08.07.03.15.05.22.08Z"/>
      <path class="cls-11" d="M46.54,36.2c.07.03.13.05.2.08-.07-.03-.13-.05-.2-.08Z"/>
      <path class="cls-11" d="M49.87,26.35c-.08-.03-.15-.06-.23-.08.08.03.15.06.23.08Z"/>
      <path class="cls-11" d="M57.56,26.59l.09-.23-.09.23Z"/>
      <path class="cls-11" d="M53.41,37.08c.03-.07.06-.13.09-.2-.03.07-.06.13-.09.2Z"/>
      <path class="cls-11" d="M49.16,26.75c.06.07.12.14.18.2-.06-.07-.12-.14-.18-.2Z"/>
      <path class="cls-11" d="M52.88,38.06l.1-.25-.1.25Z"/>
      <path class="cls-11" d="M52.56,38.49c.05-.07.11-.14.16-.21-.05.07-.11.14-.16.21Z"/>
      <path class="cls-11" d="M51.91,39.15c.06-.06.13-.13.19-.19-.06.06-.13.13-.19.19Z"/>
      <path class="cls-11" d="M51.7,39.3c.07-.05.14-.1.21-.15-.07.05-.14.1-.21.15Z"/>
      <path class="cls-11" d="M51.42,39.47c.07-.05.14-.09.21-.14-.07.05-.14.09-.21.14Z"/>
      <path class="cls-11" d="M49.84,39.55c.06.02.12.04.18.06-.06-.02-.12-.04-.18-.06Z"/>
      <path class="cls-11" d="M50.78,39.57c.07-.01.14-.02.21-.03-.07.01-.14.02-.21.03Z"/>
      <path class="cls-11" d="M54.25,26.94c-.03.06-.05.13-.08.19.03-.06.05-.13.08-.19Z"/>
      <path class="cls-11" d="M52.36,27.44c-.06-.03-.13-.06-.19-.09.06.03.13.06.19.09Z"/>
      <path class="cls-11" d="M47.01,36.29c.06.03.13.05.19.08-.06-.03-.13-.05-.19-.08Z"/>
      <path class="cls-8" d="M44.43,3.27s-.03,0-.03,0c0,.01,0,.02,0,.03,0,0,.03,0,.03,0,0-.01,0-.02,0-.03Z"/>
      <path class="cls-5" d="M53.29,13.53s.08.03.11.04c-.04-.01-.08-.03-.11-.04Z"/>
      <path class="cls-12" d="M55,13.81c-.13-.03-.25-.06-.38-.09-.13-.03-.25-.06-.38-.09-.09-.04-.19-.07-.28-.11-.04-.02-.08-.03-.13-.05-.08-.04-.17-.08-.25-.12-.6-.48-1.32-.86-1.77-1.46-.68-.9-1.07-1.96-1.06-3.14.04-3.46,3.08-5.84,6.46-5.05.08.02.15.03.23.04.06.02.13.05.19.07.26.11.53.22.79.34.08.05.16.1.24.14.1.07.19.14.29.2.06.13.12.26.18.39-.41-.13-.82-.26-1.23-.39-.1-.01-.19-.02-.29-.04l-1.49.08c-.06.02-.13.03-.19.05-1.59.44-2.61,1.45-3.1,3.01-.02.06-.04.13-.06.19-.01.06-.02.12-.03.18-.01.06-.02.13-.04.19-.02.15-.04.31-.06.46,0,.16,0,.31,0,.47.02.22.05.43.07.65.01.06.02.13.04.19.3,1.68,1.87,3.13,3.66,3.38.1.02.19.03.29.05.33,0,.65,0,.98-.01,0,.08.01.15.02.23-.2.06-.41.12-.61.17-.07.01-.13.03-.2.04-.09.02-.18.03-.27.05-.19.02-.38.04-.57.05-.13,0-.25,0-.38,0-.16-.02-.32-.04-.48-.06-.06,0-.12-.02-.18-.02Z"/>
      <path class="cls-10" d="M55.83,5.12c.1-.03.2-.07.3-.1.06-.02.13-.04.19-.06.12-.02.25-.04.37-.05.1,0,.2,0,.29,0,.28.02.56.04.84.07.06.02.13.04.19.06,1.17.31,2,1.04,2.56,2.1.05.11.09.22.14.34.02.08.05.15.07.23.02.06.03.13.05.19.01.09.03.18.04.28l.05.29c-.06.5-.11,1-.17,1.5-.03.06-.05.13-.08.19-.17.28-.34.57-.51.85-.03,0-.05-.01-.08-.02.05-.59.09-1.18.14-1.77-.01-.06-.03-.13-.04-.19-.16-1.07-.76-1.82-1.71-2.3-.09-.04-.18-.08-.26-.12-.31-.07-.62-.14-.94-.21-.1-.01-.19-.03-.29-.04h-.18c-.13.02-.25.04-.38.05-1.28.18-2.32,1.11-2.62,2.35-.02.06-.04.13-.06.19-.02.12-.03.25-.05.37,0,.09,0,.19,0,.28,0,.06,0,.12,0,.19-.06.06-.13.11-.19.17-.05-.15-.1-.3-.15-.45-.01-.06-.03-.13-.04-.19.03-.53.06-1.07.09-1.6.02-.06.05-.13.07-.19.4-1.03,1.09-1.8,2.1-2.28.09-.03.18-.07.27-.1Z"/>
      <path class="cls-7" d="M59.14,4.89c-.06-.13-.12-.26-.18-.39.13.06.27.12.39.2.04.03.02.14.02.21-.08,0-.16,0-.23-.01Z"/>
      <path class="cls-5" d="M56.04,13.9c.19-.02.38-.04.57-.05-.19.02-.38.04-.57.05Z"/>
      <path class="cls-7" d="M53.49,9.93c.06-.06.13-.11.19-.17,0,.12,0,.23,0,.35-.07-.06-.13-.12-.2-.18Z"/>
      <path class="cls-7" d="M52.65,9.11c0-.16,0-.31,0-.47,0,.16,0,.31,0,.47Z"/>
      <path class="cls-7" d="M56.41,6.38c.13-.01.25-.03.38-.04-.13.01-.25.03-.38.04Z"/>
      <path class="cls-7" d="M56.98,4.91c-.1,0-.2,0-.29,0,.1,0,.2,0,.29,0Z"/>
      <path class="cls-7" d="M53.68,9.57c0-.09,0-.19,0-.28,0,.09,0,.19,0,.28Z"/>
      <path class="cls-5" d="M56.7,13.37c-.1-.02-.19-.03-.29-.05.1.02.19.03.29.05Z"/>
      <path class="cls-7" d="M57.63,4.47c.1.01.19.02.29.04-.1-.01-.19-.02-.29-.04Z"/>
      <path class="cls-5" d="M57.69,13.59c0-.08-.01-.15-.02-.23.07.02.14.05.21.07-.07.05-.13.1-.2.15Z"/>
      <path class="cls-7" d="M60.92,8.45c-.02-.1-.03-.19-.05-.29.02.1.03.19.05.29Z"/>
      <path class="cls-7" d="M56.97,6.33l.29.04-.29-.04Z"/>
      <path class="cls-7" d="M60.71,7.47c-.05-.11-.09-.22-.14-.34.05.11.09.22.14.34Z"/>
      <path class="cls-5" d="M53.59,13.34c.08.04.17.08.25.12-.08-.04-.17-.08-.25-.12Z"/>
      <path class="cls-7" d="M57.64,3.82c-.06-.02-.13-.05-.19-.07.06.02.13.05.19.07Z"/>
      <path class="cls-7" d="M60.67,10.14l.08-.19c-.03.06-.05.13-.08.19Z"/>
      <path class="cls-7" d="M52.75,9.95c-.01-.06-.02-.13-.04-.19.01.06.02.13.04.19Z"/>
      <path class="cls-7" d="M58.67,4.3c-.08-.05-.16-.1-.24-.14.08.05.16.1.24.14Z"/>
      <path class="cls-7" d="M55.94,4.59l.19-.05-.19.05Z"/>
      <path class="cls-7" d="M56.31,4.97c-.06.02-.13.04-.19.06.06-.02.13-.04.19-.06Z"/>
      <path class="cls-7" d="M58.01,5.03c-.06-.02-.13-.04-.19-.06.06.02.13.04.19.06Z"/>
      <path class="cls-7" d="M55.83,5.12c-.09.03-.18.07-.27.1.09-.03.18-.07.27-.1Z"/>
      <path class="cls-7" d="M53.3,9.29c.01.06.03.13.04.19-.01-.06-.03-.13-.04-.19Z"/>
      <path class="cls-7" d="M60.17,9.01c.01.06.03.13.04.19-.01-.06-.03-.13-.04-.19Z"/>
      <path class="cls-7" d="M53.73,8.92c.02-.06.04-.13.06-.19-.02.06-.04.13-.06.19Z"/>
      <path class="cls-5" d="M56.88,13.8c.07-.01.13-.03.2-.04-.07.01-.13.03-.2.04Z"/>
      <path class="cls-7" d="M52.71,8.17c.01-.06.02-.13.04-.19-.01.06-.02.13-.04.19Z"/>
      <path class="cls-7" d="M60.83,7.88c-.02-.06-.03-.13-.05-.19.02.06.03.13.05.19Z"/>
      <path class="cls-7" d="M52.78,7.79c.02-.06.04-.13.06-.19-.02.06-.04.13-.06.19Z"/>
      <path class="cls-7" d="M53.46,7.5c-.02.06-.05.13-.07.19.02-.06.05-.13.07-.19Z"/>
      <path class="cls-7" d="M58.19,6.59c.09.04.18.08.26.12-.09-.04-.18-.08-.26-.12Z"/>
      <path class="cls-13" d="M62.49,46.17c0-.5.38-.91.86-.92.52-.02.96.4.97.93,0,.5-.41.92-.92.93-.5,0-.91-.41-.91-.93Z"/>
      <path class="cls-15" d="M58.43,34.79c-.09.68-.13,1.32-.27,1.94-.08.35-.28.7-.51.98-.34.42-.73.8-1.14,1.15-.24.2-.45.13-.49-.25-.13-1.23.17-2.35.8-3.39.39-.65.95-.75,1.61-.42Z"/>
      <path class="cls-1" d="M40.19,18.63c.28-.8.55-1.61.83-2.41.09-.24.27-.29.53-.23,1.12.25,1.45.56,1.6,1.54.15.96-.31,1.93-1.12,2.37-.41.22-.76.03-1.1-.16-.4-.23-.61-.6-.75-1.11Z"/>
      <path class="cls-16" d="M71.29,25.45c-.05-.91.33-1.33.95-1.07-.31.34-.6.67-.95,1.07Z"/>
      <path class="cls-19" d="M65.34,25.89c-.1-.49,0-.83.32-1.05.14-.1.37-.08.56-.11.02.05.04.09.06.14-.29.32-.58.63-.93,1.02Z"/>
      <path class="cls-9" d="M69.21,25.57c-.09-.43-.17-.79-.27-1.28.31.06.75.03.8.16.17.46-.2.76-.53,1.11Z"/>
      <path class="cls-8" d="M54.24,13.62c.13.03.25.06.38.09-.07.05-.14.1-.21.15-.05-.08-.11-.16-.16-.24Z"/>
      <path class="cls-8" d="M55,13.81c.06,0,.12.02.18.02-.04.06-.07.12-.11.18-.02-.07-.05-.14-.07-.21Z"/>
    </g>
  </g>
</svg>